
<svg version="1.0" xmlns="http://www.w3.org/2000/svg"
 width="64.000000pt" height="64.000000pt" viewBox="0 0 64.000000 64.000000"
 preserveAspectRatio="xMidYMid meet">

<g transform="translate(0.000000,64.000000) scale(0.100000,-0.100000)"
fill="hsl(120, 1%, 67%)" stroke="none">
<path d="M15 530 c-11 -18 6 -28 50 -32 l40 -3 21 -130 c11 -71 24 -138 29
-148 11 -25 34 -28 195 -25 121 3 145 5 145 18 0 13 -25 15 -150 18 -143 2
-164 7 -165 35 0 4 72 7 159 7 198 0 186 -8 211 138 6 34 8 67 5 72 -4 6 -87
10 -210 10 -204 0 -204 0 -207 23 -3 19 -10 22 -60 25 -34 2 -59 -1 -63 -8z
m491 -147 l-11 -68 -162 -3 -161 -2 -7 56 c-4 32 -9 63 -12 71 -4 11 29 13
179 13 l185 0 -11 -67z"/>
<path d="M190 135 c-26 -32 13 -81 48 -59 22 14 27 41 12 59 -16 19 -44 19
-60 0z"/>
<path d="M410 135 c-26 -32 13 -81 48 -59 22 14 27 41 12 59 -16 19 -44 19
-60 0z"/>
</g>
</svg>
