<svg version="1.0" xmlns="http://www.w3.org/2000/svg"
 width="512.000000pt" height="512.000000pt" viewBox="0 0 512.000000 512.000000"
 preserveAspectRatio="xMidYMid meet">

<g transform="translate(0.000000,512.000000) scale(0.100000,-0.100000)"
fill="hsl(150, 1%, 42%)" stroke="none">
<path d="M385 5110 c-11 -4 -100 -89 -198 -187 -151 -152 -178 -184 -184 -216
-5 -34 9 -62 192 -384 109 -191 214 -364 233 -385 18 -20 59 -50 90 -65 50
-25 70 -28 173 -32 l116 -3 569 -569 569 -569 -916 -917 c-550 -552 -928 -938
-947 -968 -132 -215 -97 -495 85 -665 172 -161 409 -190 628 -77 51 26 187
157 902 871 463 462 846 836 850 832 4 -4 7 -53 5 -109 l-3 -101 728 -727 728
-727 85 -41 c201 -98 415 -92 600 16 86 51 292 257 343 343 108 185 114 399
16 600 l-41 85 -728 729 -728 729 -83 -6 c-46 -3 -93 -2 -104 2 -17 7 -13 12
35 43 163 104 347 158 540 158 250 0 506 85 705 234 406 305 573 832 412 1301
-36 105 -81 197 -107 220 -30 27 -100 27 -130 0 -13 -11 -93 -126 -180 -255
-86 -129 -170 -248 -186 -264 -46 -46 -89 -60 -189 -60 -204 1 -372 101 -460
273 -62 125 -56 147 136 468 88 147 163 279 166 293 2 15 -2 43 -10 63 -28 65
-98 83 -259 66 -110 -11 -219 -36 -306 -69 -322 -124 -580 -390 -693 -715 -37
-108 -56 -219 -68 -405 -13 -188 -35 -282 -100 -415 -53 -109 -120 -202 -200
-280 l-51 -50 -569 569 -569 569 -3 116 c-4 103 -7 123 -32 173 -15 31 -45 72
-65 90 -54 49 -722 428 -752 427 -14 0 -34 -4 -45 -9z m3425 -224 c0 -3 -48
-84 -107 -182 -58 -97 -114 -204 -125 -236 -53 -171 9 -363 167 -523 140 -141
320 -214 532 -215 131 0 250 46 332 128 25 26 91 116 146 199 55 84 103 153
107 153 3 0 14 -33 23 -72 21 -87 23 -273 5 -368 -64 -342 -325 -637 -652
-738 -96 -30 -163 -40 -345 -52 -249 -16 -420 -68 -596 -183 -47 -30 -88 -53
-91 -50 -3 3 -2 41 1 84 l6 79 -103 104 c-129 132 -188 166 -301 173 -43 3
-79 7 -79 9 0 2 21 34 46 71 90 131 161 302 188 455 8 46 20 153 25 239 8 113
17 179 36 244 95 328 353 577 690 665 72 20 95 23 95 16z m-3029 -198 c145
-82 258 -153 268 -168 12 -18 17 -54 19 -145 1 -66 5 -131 8 -145 3 -16 234
-254 642 -663 l637 -637 -83 -82 -82 -83 -637 637 c-409 408 -647 639 -663
642 -14 3 -79 7 -146 8 -89 2 -126 7 -144 19 -13 9 -97 144 -192 310 l-168
294 102 102 102 102 43 -24 c24 -13 156 -88 294 -167z m2077 -1729 c9 -7 43
-38 75 -68 l57 -55 0 -66 c0 -120 49 -230 140 -313 81 -74 145 -100 256 -105
l92 -4 679 -682 c634 -635 681 -685 707 -744 52 -118 52 -238 2 -349 -30 -64
-199 -244 -276 -293 -121 -76 -281 -80 -421 -10 -30 15 -252 230 -720 697
l-677 675 -4 88 c-4 77 -9 98 -41 163 -44 88 -122 167 -207 206 -43 19 -76 26
-147 29 l-93 4 -64 69 c-74 78 -92 121 -75 184 9 33 56 86 272 303 144 145
271 268 282 274 49 28 124 26 163 -3z m-914 -738 c22 -60 69 -121 175 -225
l91 -89 83 6 82 7 -820 -820 c-908 -907 -863 -867 -1005 -878 -242 -17 -401
214 -305 445 11 27 249 271 843 866 l827 827 7 -47 c4 -27 14 -68 22 -92z"/>
</g>
</svg>
