<?xml version="1.0" standalone="no"?>
<!DOCTYPE svg PUBLIC "-//W3C//DTD SVG 20010904//EN"
 "http://www.w3.org/TR/2001/REC-SVG-20010904/DTD/svg10.dtd">
<svg version="1.0" xmlns="http://www.w3.org/2000/svg"
 width="64.000000pt" height="64.000000pt" viewBox="0 0 64.000000 64.000000"
 preserveAspectRatio="xMidYMid meet">

<g transform="translate(0.000000,64.000000) scale(0.100000,-0.100000)"
fill="#000000" stroke="none">
<path d="M181 417 c-6 -8 -8 -17 -4 -20 8 -9 278 -9 286 0 4 3 2 12 -4 20 -16
19 -262 19 -278 0z"/>
<path d="M202 313 c3 -16 17 -18 118 -18 101 0 115 2 118 18 3 15 -8 17 -118
17 -110 0 -121 -2 -118 -17z"/>
<path d="M230 220 c0 -19 7 -20 90 -20 83 0 90 1 90 20 0 19 -7 20 -90 20 -83
0 -90 -1 -90 -20z"/>
</g>
</svg>
