<svg version="1.0" xmlns="http://www.w3.org/2000/svg"
 width="32px" height="32px" viewBox="0 0 980.000000 898.000000"
 preserveAspectRatio="xMidYMid meet">

<g transform="translate(0.000000,898.000000) scale(0.100000,-0.100000)"
fill="#ffffff" stroke="none">
<path d="M1600 8965 c0 -3 10 -25 21 -48 66 -128 493 -627 1338 -1562 391
-432 532 -604 596 -726 62 -118 40 -169 -72 -169 -113 1 -210 72 -653 480
-923 850 -1647 1470 -1717 1470 -90 0 249 -419 1127 -1395 657 -730 790 -902
790 -1022 -1 -228 -188 -107 -1040 672 -894 817 -1431 1267 -1468 1230 -31
-31 479 -650 1107 -1344 645 -712 781 -875 850 -1016 54 -109 34 -157 -67
-158 -61 -1 -103 22 -249 132 -129 98 -176 139 -684 596 -708 639 -1206 1064
-1378 1177 -119 78 -131 62 -45 -63 128 -189 485 -604 1159 -1349 665 -735
1092 -1159 1305 -1295 131 -84 226 -109 405 -108 195 1 302 31 568 160 l178
87 205 -204 c293 -293 558 -576 636 -682 38 -50 68 -93 67 -97 0 -3 -151 -141
-336 -306 -885 -792 -1729 -1583 -2038 -1911 -335 -356 -416 -467 -471 -649
-24 -79 -27 -108 -28 -235 -1 -125 2 -155 22 -220 59 -190 177 -313 362 -376
85 -29 274 -25 403 9 211 56 379 149 511 282 190 192 722 803 1316 1510 336
400 718 847 848 991 57 64 97 100 112 103 45 6 89 -31 227 -193 1108 -1299
1782 -2067 2027 -2311 157 -156 245 -226 356 -284 246 -128 436 -160 626 -105
228 65 352 200 391 421 19 108 13 330 -11 416 -69 251 -301 506 -1091 1203
-300 265 -1554 1349 -1733 1498 -77 64 -135 120 -138 133 -11 44 58 120 156
173 101 54 194 94 364 154 252 90 378 142 592 246 630 305 1125 683 1526 1164
307 368 548 735 757 1153 326 651 486 1277 468 1833 -5 186 -18 235 -62 246
-33 8 -65 -17 -290 -223 -462 -424 -1187 -1135 -3010 -2954 l-1180 -1178 -135
121 c-122 109 -453 421 -764 720 l-120 114 66 125 c111 211 149 332 168 528
16 173 -15 382 -74 499 -33 64 -178 222 -457 498 -819 807 -2075 1926 -2276
2028 -32 16 -63 21 -63 11z"/>
</g>
</svg>
