<svg version="1.1" id="Layer_1" xmlns="http://www.w3.org/2000/svg" xmlns:xlink="http://www.w3.org/1999/xlink" x="0px" y="0px"
	 width="100%" viewBox="0 0 407 402" enable-background="new 0 0 407 402" xml:space="preserve">
<path fill="#FFFFFF" opacity="1.000000" stroke="none" 
	d="
M242.000000,403.000000 
	C161.333328,403.000000 81.166664,403.000000 1.000000,403.000000 
	C1.000000,269.000000 1.000000,135.000000 1.000000,1.000000 
	C136.666672,1.000000 272.333344,1.000000 408.000000,1.000000 
	C408.000000,135.000000 408.000000,269.000000 408.000000,403.000000 
	C352.833344,403.000000 297.666656,403.000000 242.000000,403.000000 
M85.980637,41.521126 
	C81.209953,45.292095 76.208092,48.807388 71.707382,52.876934 
	C48.403362,73.948463 30.647081,98.948128 18.979506,128.192444 
	C10.357189,149.803925 5.758039,172.272751 5.084711,195.491501 
	C4.869964,202.896759 5.056593,210.420624 6.129638,217.733200 
	C8.153629,231.526291 9.656796,245.598724 13.676408,258.857819 
	C25.504623,297.874359 47.450558,330.372528 79.418373,356.027405 
	C98.180115,371.084106 118.927132,382.342041 141.664719,389.907196 
	C162.859009,396.958862 184.732422,400.240540 207.061890,399.913147 
	C214.070862,399.810364 221.177353,399.239655 228.041718,397.883514 
	C242.121872,395.101685 256.497589,392.878601 269.976135,388.194183 
	C294.177521,379.783020 315.878296,366.732147 335.213562,349.536285 
	C353.736389,333.062988 368.385559,313.818848 379.926605,292.126190 
	C393.289337,267.009460 399.983124,239.890854 401.892609,211.656830 
	C403.062897,194.352859 401.475616,177.051910 397.718048,160.139206 
	C390.501343,127.657059 376.463013,98.484192 354.671112,73.046555 
	C337.127167,52.567558 316.601440,36.128864 292.579468,23.919771 
	C269.371948,12.124628 244.709244,5.147686 218.901428,3.207153 
	C199.361343,1.737902 179.693558,2.741174 160.476913,7.311214 
	C133.639282,13.693655 108.712708,24.411634 85.980637,41.521126 
z"/>
<path fill="#010101" opacity="1.000000" stroke="none" 
	d="
M86.236755,41.261963 
	C108.712708,24.411634 133.639282,13.693655 160.476913,7.311214 
	C179.693558,2.741174 199.361343,1.737902 218.901428,3.207153 
	C244.709244,5.147686 269.371948,12.124628 292.579468,23.919771 
	C316.601440,36.128864 337.127167,52.567558 354.671112,73.046555 
	C376.463013,98.484192 390.501343,127.657059 397.718048,160.139206 
	C401.475616,177.051910 403.062897,194.352859 401.892609,211.656830 
	C399.983124,239.890854 393.289337,267.009460 379.926605,292.126190 
	C368.385559,313.818848 353.736389,333.062988 335.213562,349.536285 
	C315.878296,366.732147 294.177521,379.783020 269.976135,388.194183 
	C256.497589,392.878601 242.121872,395.101685 228.041718,397.883514 
	C221.177353,399.239655 214.070862,399.810364 207.061890,399.913147 
	C184.732422,400.240540 162.859009,396.958862 141.664719,389.907196 
	C118.927132,382.342041 98.180115,371.084106 79.418373,356.027405 
	C47.450558,330.372528 25.504623,297.874359 13.676408,258.857819 
	C9.656796,245.598724 8.153629,231.526291 6.129638,217.733200 
	C5.056593,210.420624 4.869964,202.896759 5.084711,195.491501 
	C5.758039,172.272751 10.357189,149.803925 18.979506,128.192444 
	C30.647081,98.948128 48.403362,73.948463 71.707382,52.876934 
	C76.208092,48.807388 81.209953,45.292095 86.236755,41.261963 
M239.969940,98.485336 
	C240.150269,92.340942 239.336472,91.369102 232.436310,89.707977 
	C230.501694,90.811752 227.716187,91.457535 226.820938,93.120750 
	C225.264404,96.012474 223.726532,98.195518 220.412796,99.136749 
	C219.404190,99.423241 217.951447,101.834633 218.148453,102.071892 
	C219.328629,103.493233 221.904694,105.812943 222.236969,105.553879 
	C224.785919,103.566437 225.686111,105.705811 226.282440,107.122330 
	C229.212189,114.081696 232.656235,120.952141 234.463181,128.216049 
	C235.898346,133.985336 235.499359,140.371948 228.252090,143.619781 
	C229.639740,140.862228 231.027405,138.104675 232.415054,135.347122 
	C231.883652,134.923599 231.352249,134.500061 230.820847,134.076538 
	C227.001907,137.451736 223.182953,140.826950 219.364014,144.202148 
	C219.708740,144.686569 220.053482,145.170975 220.398209,145.655396 
	C223.282166,145.122650 226.166122,144.589920 229.156387,144.809967 
	C221.166565,149.900864 212.312225,148.235275 203.685379,147.826736 
	C202.659363,147.778137 201.235535,145.626495 200.858948,144.218857 
	C199.373810,138.667465 200.329025,133.468719 203.442444,128.515762 
	C204.711914,126.496231 207.755463,122.933952 202.548279,122.198242 
	C195.503403,121.202896 188.315140,121.222427 180.942673,120.792206 
	C180.598679,114.564476 180.196838,107.620056 179.839828,100.673325 
	C179.683838,97.638405 178.857544,95.651230 175.110565,95.952492 
	C166.997437,96.604797 158.863586,97.025551 150.732040,97.410759 
	C147.177689,97.579147 145.786926,98.976448 146.141830,102.717758 
	C146.796219,109.616310 147.013977,116.556290 147.363571,122.611206 
	C145.486084,124.136398 144.255219,125.136292 143.024368,126.136185 
	C144.540756,126.703194 146.023972,127.404709 147.585266,127.789490 
	C148.610245,128.042099 149.747971,127.837219 151.881058,127.837219 
	C142.269684,135.750305 139.711273,145.395294 140.917953,156.376816 
	C140.987885,157.013367 140.962128,157.734467 140.732315,158.318390 
	C138.658997,163.586227 138.775757,163.750107 144.869400,163.844009 
	C146.917511,165.944290 149.230515,167.847610 150.965363,170.180817 
	C156.779449,178.000244 167.184814,179.324890 175.764542,172.851654 
	C177.500305,170.082031 178.705780,166.640335 181.122375,164.733582 
	C183.494049,162.862259 184.480927,160.486008 185.993149,158.246887 
	C193.348099,147.356583 187.839905,134.451553 174.785767,133.148666 
	C168.427917,132.514099 161.908188,133.467758 155.464020,133.754013 
	C153.709106,133.831970 151.962494,134.097000 149.178970,134.381927 
	C150.379486,132.985138 150.622726,132.412018 150.982925,132.325424 
	C160.120010,130.128677 169.327545,128.905914 178.588120,131.430557 
	C185.190262,133.230453 189.260696,137.575760 191.255890,144.212692 
	C193.052475,150.188980 190.709335,155.122147 187.670731,160.397064 
	C197.364136,159.863220 206.479553,159.288803 215.602432,158.881470 
	C223.017563,158.550385 231.026367,159.724503 234.090363,149.117996 
	C234.838470,151.323730 235.155258,152.257782 235.727646,153.945419 
	C246.215012,140.983963 259.492889,137.569733 275.103271,141.134857 
	C271.748566,132.664551 264.796814,130.079208 251.213516,130.902817 
	C245.303009,121.897575 239.822189,113.547028 234.430359,105.332054 
	C239.572479,104.240646 239.793900,103.985535 239.969940,98.485336 
M309.144043,216.852386 
	C310.025513,204.010422 310.907013,191.168457 311.817993,177.897018 
	C306.504211,178.301041 302.081268,178.637314 297.415833,178.992035 
	C296.866241,187.083374 296.344696,194.761658 295.823181,202.439926 
	C295.622864,202.460846 295.422546,202.481750 295.222260,202.502655 
	C293.739563,194.790359 292.256897,187.078064 290.731964,179.146133 
	C285.267853,179.530563 280.359253,179.875900 275.171722,180.240860 
	C274.492249,189.707962 273.791748,198.801682 273.199707,207.902481 
	C272.599030,217.135849 272.105499,226.376190 271.536407,236.102692 
	C276.649475,235.746567 281.065979,235.438965 285.696503,235.116440 
	C286.235901,227.673615 286.748962,220.594116 287.262024,213.514618 
	C287.562317,213.505783 287.862640,213.496948 288.162933,213.488113 
	C289.524933,220.549286 290.886932,227.610458 292.297485,234.923492 
	C297.718353,234.545776 302.644043,234.202560 308.016357,233.828217 
	C308.384430,228.325241 308.736816,223.057037 309.144043,216.852386 
M111.247627,227.689194 
	C110.946663,233.410934 110.645699,239.132675 110.318871,245.346085 
	C117.101074,244.862961 123.254181,244.696564 129.330292,243.924362 
	C137.273972,242.914825 143.354050,237.398529 144.311951,229.438400 
	C145.461090,219.888992 145.917740,210.223587 146.069565,200.598862 
	C146.163681,194.632324 142.133743,189.742798 136.246994,189.163406 
	C128.946503,188.444885 121.521545,188.991272 113.914886,188.991272 
	C113.003342,202.238312 112.159943,214.495041 111.247627,227.689194 
M235.923950,209.275284 
	C235.623718,214.261292 235.073669,219.248047 235.088608,224.233109 
	C235.105972,230.026337 237.707428,234.539749 243.235077,236.841034 
	C254.270264,241.435226 267.502777,234.024124 268.896729,222.187347 
	C269.928040,213.430084 270.446259,204.594589 270.777863,195.778336 
	C271.045135,188.671280 267.637390,183.772858 261.811981,181.679901 
	C250.773331,177.713882 238.644608,184.829346 236.971375,196.391464 
	C236.400192,200.338287 236.293137,204.352264 235.923950,209.275284 
M180.515106,197.997009 
	C181.056625,193.994217 181.598160,189.991425 182.227310,185.340942 
	C171.268387,185.982727 161.252579,186.569290 151.059174,187.166245 
	C149.851517,206.138855 148.685257,224.461044 147.499542,243.088913 
	C158.333862,242.435318 168.228622,241.838409 178.330566,241.229004 
	C178.606110,236.646713 178.840775,232.744156 179.081131,228.746796 
	C173.359833,228.746796 168.294495,228.746796 162.886993,228.746796 
	C163.059692,226.039459 163.221848,223.497330 163.390488,220.853760 
	C166.753357,220.513947 169.528488,220.233521 172.715790,219.911453 
	C172.926300,215.612747 173.123306,211.589905 173.329758,207.374176 
	C169.943756,207.374176 167.361252,207.374176 164.307114,207.374176 
	C164.544724,204.556168 164.759796,202.005432 164.987000,199.310608 
	C170.116806,198.939316 174.897141,198.593323 180.515106,197.997009 
M182.168320,232.649750 
	C182.168320,235.403122 182.168320,238.156479 182.168320,241.188034 
	C191.660782,240.708771 200.784729,240.322708 209.891434,239.689117 
	C210.968094,239.614182 212.694534,238.300110 212.842468,237.359589 
	C213.371017,233.998901 213.349091,230.551636 213.542984,226.998810 
	C207.804535,226.998810 202.569046,226.998810 197.168076,226.998810 
	C198.058853,212.854263 198.931335,199.000061 199.809494,185.055923 
	C196.134369,185.055923 192.995773,185.232056 189.885559,185.010193 
	C186.210770,184.748062 185.120209,186.202255 184.937149,189.862228 
	C184.239029,203.818604 183.160141,217.755951 182.168320,232.649750 
M228.527267,182.898438 
	C227.696686,182.932755 226.866302,182.973038 226.035492,183.000397 
	C219.395447,183.219101 219.468567,183.222580 219.078705,189.958237 
	C218.560120,198.917999 217.888306,207.868774 217.329803,216.826370 
	C216.870483,224.193375 216.480377,231.564697 216.067825,238.790131 
	C219.946503,238.790131 223.106125,238.660278 226.250366,238.824768 
	C229.757019,239.008194 230.711594,237.347916 230.894943,234.066238 
	C231.747925,218.799423 232.840225,203.546082 233.813324,188.285767 
	C233.925552,186.525696 233.828552,184.752289 233.828552,182.849121 
	C232.101242,182.849121 230.794739,182.849121 228.527267,182.898438 
M270.178040,164.582870 
	C271.346313,161.219925 273.616516,157.809845 273.475128,154.502899 
	C273.059814,144.791122 269.254028,140.303040 260.428925,142.385010 
	C254.323761,143.825302 248.464554,146.878464 242.980865,150.050171 
	C241.238556,151.057892 240.081665,154.880020 240.350647,157.219543 
	C241.108063,163.807709 244.928467,168.720978 251.420868,170.575653 
	C258.459045,172.586258 264.919525,171.275482 270.178040,164.582870 
M183.403625,112.907013 
	C181.135864,116.806519 182.032593,118.443962 186.437775,118.727097 
	C192.357559,119.107582 198.280304,119.502869 204.180222,120.103477 
	C206.765488,120.366661 209.123947,120.951782 209.940201,117.451408 
	C210.744659,114.001518 208.921280,112.581421 206.004379,111.828262 
	C198.639191,109.926521 191.333649,109.846352 183.403625,112.907013 
M126.737885,158.103149 
	C130.504776,157.806503 134.271667,157.509857 138.038574,157.213211 
	C137.980438,156.431824 137.922318,155.650452 137.864182,154.869080 
	C130.016571,155.396774 122.168976,155.924484 114.321365,156.452194 
	C114.339859,157.004639 114.358345,157.557083 114.376839,158.109528 
	C118.188141,158.109528 121.999443,158.109528 126.737885,158.103149 
M117.277443,145.257568 
	C115.255219,147.695007 116.824791,147.928345 118.868660,147.823532 
	C124.654846,147.526794 130.443466,147.259705 136.221893,146.850342 
	C137.021103,146.793732 137.768036,145.999100 139.332230,145.080292 
	C131.618896,145.080292 124.860764,145.080292 117.277443,145.257568 
z"/>
<path fill="#F6F6F6" opacity="1.000000" stroke="none" 
	d="
M229.057373,144.050491 
	C235.499359,140.371948 235.898346,133.985336 234.463181,128.216049 
	C232.656235,120.952141 229.212189,114.081696 226.282440,107.122330 
	C225.686111,105.705811 224.785919,103.566437 222.236969,105.553879 
	C221.904694,105.812943 219.328629,103.493233 218.148453,102.071892 
	C217.951447,101.834633 219.404190,99.423241 220.412796,99.136749 
	C223.726532,98.195518 225.264404,96.012474 226.820938,93.120750 
	C227.716187,91.457535 230.501694,90.811752 232.683136,90.275192 
	C231.996567,96.506195 233.873001,98.855682 239.512421,99.084312 
	C239.793900,103.985535 239.572479,104.240646 234.430359,105.332054 
	C239.822189,113.547028 245.303009,121.897575 251.213516,130.902817 
	C264.796814,130.079208 271.748566,132.664551 275.103271,141.134857 
	C259.492889,137.569733 246.215012,140.983963 235.727646,153.945419 
	C235.155258,152.257782 234.838470,151.323730 234.090363,149.117996 
	C231.026367,159.724503 223.017563,158.550385 215.602432,158.881470 
	C206.479553,159.288803 197.364136,159.863220 187.670731,160.397064 
	C190.709335,155.122147 193.052475,150.188980 191.255890,144.212692 
	C189.260696,137.575760 185.190262,133.230453 178.588120,131.430557 
	C169.327545,128.905914 160.120010,130.128677 150.982925,132.325424 
	C150.622726,132.412018 150.379486,132.985138 149.178970,134.381927 
	C151.962494,134.097000 153.709106,133.831970 155.464020,133.754013 
	C161.908188,133.467758 168.427917,132.514099 174.785767,133.148666 
	C187.839905,134.451553 193.348099,147.356583 185.993149,158.246887 
	C184.480927,160.486008 183.494049,162.862259 181.122375,164.733582 
	C178.705780,166.640335 177.500305,170.082031 175.138153,172.806305 
	C173.357101,171.236710 172.202454,169.712479 171.211700,167.869339 
	C173.465912,162.871170 176.828125,159.897766 183.517975,160.604141 
	C181.860611,159.130280 181.496719,158.532867 181.162186,158.548904 
	C170.388733,159.064804 159.614334,159.584290 148.854248,160.312347 
	C147.998840,160.370239 147.245285,161.933548 145.968933,162.890121 
	C145.177048,163.047668 144.860626,163.112335 144.544220,163.177002 
	C138.775757,163.750107 138.658997,163.586227 140.732315,158.318390 
	C140.962128,157.734467 140.987885,157.013367 140.917953,156.376816 
	C139.711273,145.395294 142.269684,135.750305 151.881058,127.837219 
	C149.747971,127.837219 148.610245,128.042099 147.585266,127.789490 
	C146.023972,127.404709 144.540756,126.703194 143.024368,126.136185 
	C144.255219,125.136292 145.486084,124.136398 147.363571,122.611206 
	C147.013977,116.556290 146.796219,109.616310 146.141830,102.717758 
	C145.786926,98.976448 147.177689,97.579147 150.732040,97.410759 
	C158.863586,97.025551 166.997437,96.604797 175.110565,95.952492 
	C178.857544,95.651230 179.683838,97.638405 179.839828,100.673325 
	C180.196838,107.620056 180.598679,114.564476 180.942673,120.792206 
	C188.315140,121.222427 195.503403,121.202896 202.548279,122.198242 
	C207.755463,122.933952 204.711914,126.496231 203.442444,128.515762 
	C200.329025,133.468719 199.373810,138.667465 200.858948,144.218857 
	C201.235535,145.626495 202.659363,147.778137 203.685379,147.826736 
	C212.312225,148.235275 221.166565,149.900864 229.079865,144.405853 
	C229.003342,144.001755 229.057373,144.050491 229.057373,144.050491 
M171.589203,102.121384 
	C170.694839,101.158241 169.955185,99.613785 168.880600,99.327820 
	C162.655594,97.671204 153.751358,101.899780 150.384933,108.069855 
	C157.118179,112.230423 163.860031,116.396301 171.607834,121.183762 
	C171.607834,114.158012 171.607834,108.587440 171.589203,102.121384 
M165.766769,122.233086 
	C161.086014,122.645119 156.405273,123.057152 151.724533,123.469185 
	C151.810562,124.178780 151.896591,124.888374 151.982620,125.597969 
	C161.121109,125.065422 170.259583,124.532875 179.398056,124.000328 
	C179.368347,123.402946 179.338623,122.805565 179.308914,122.208183 
	C175.110397,122.208183 170.911880,122.208183 165.766769,122.233086 
M247.212311,134.640228 
	C247.437363,134.069656 247.662415,133.499100 247.887451,132.928528 
	C247.070923,132.923492 245.926224,132.565414 245.490707,132.970261 
	C242.485229,135.763992 239.500900,138.605789 236.801208,141.687454 
	C236.007950,142.592926 236.156586,144.323547 235.804276,146.007034 
	C239.792938,141.972534 243.211365,138.514832 247.212311,134.640228 
z"/>
<path fill="#FAFAFA" opacity="1.000000" stroke="none" 
	d="
M309.116638,217.320618 
	C308.736816,223.057037 308.384430,228.325241 308.016357,233.828217 
	C302.644043,234.202560 297.718353,234.545776 292.297485,234.923492 
	C290.886932,227.610458 289.524933,220.549286 288.162933,213.488113 
	C287.862640,213.496948 287.562317,213.505783 287.262024,213.514618 
	C286.748962,220.594116 286.235901,227.673615 285.696503,235.116440 
	C281.065979,235.438965 276.649475,235.746567 271.536407,236.102692 
	C272.105499,226.376190 272.599030,217.135849 273.199707,207.902481 
	C273.791748,198.801682 274.492249,189.707962 275.171722,180.240860 
	C280.359253,179.875900 285.267853,179.530563 290.731964,179.146133 
	C292.256897,187.078064 293.739563,194.790359 295.222260,202.502655 
	C295.422546,202.481750 295.622864,202.460846 295.823181,202.439926 
	C296.344696,194.761658 296.866241,187.083374 297.415833,178.992035 
	C302.081268,178.637314 306.504211,178.301041 311.817993,177.897018 
	C310.907013,191.168457 310.025513,204.010422 309.116638,217.320618 
z"/>
<path fill="#FAFAFA" opacity="1.000000" stroke="none" 
	d="
M111.282089,227.220490 
	C112.159943,214.495041 113.003342,202.238312 113.914886,188.991272 
	C121.521545,188.991272 128.946503,188.444885 136.246994,189.163406 
	C142.133743,189.742798 146.163681,194.632324 146.069565,200.598862 
	C145.917740,210.223587 145.461090,219.888992 144.311951,229.438400 
	C143.354050,237.398529 137.273972,242.914825 129.330292,243.924362 
	C123.254181,244.696564 117.101074,244.862961 110.318871,245.346085 
	C110.645699,239.132675 110.946663,233.410934 111.282089,227.220490 
M125.839729,228.284119 
	C126.165367,229.241791 126.491013,230.199448 126.816666,231.157120 
	C127.903534,230.111130 129.821030,229.153412 129.943085,228.004868 
	C130.763885,220.281326 131.334702,212.522293 131.632324,204.761169 
	C131.679688,203.525986 129.944519,202.222427 129.033463,200.950485 
	C128.522598,201.208313 128.011749,201.466156 127.500893,201.723984 
	C126.961151,210.263824 126.421410,218.803650 125.839729,228.284119 
z"/>
<path fill="#FAFAFA" opacity="1.000000" stroke="none" 
	d="
M235.948975,208.805420 
	C236.293137,204.352264 236.400192,200.338287 236.971375,196.391464 
	C238.644608,184.829346 250.773331,177.713882 261.811981,181.679901 
	C267.637390,183.772858 271.045135,188.671280 270.777863,195.778336 
	C270.446259,204.594589 269.928040,213.430084 268.896729,222.187347 
	C267.502777,234.024124 254.270264,241.435226 243.235077,236.841034 
	C237.707428,234.539749 235.105972,230.026337 235.088608,224.233109 
	C235.073669,219.248047 235.623718,214.261292 235.948975,208.805420 
M255.191666,212.757996 
	C255.514084,207.620392 255.961517,202.485214 256.061554,197.343292 
	C256.083649,196.208755 254.874741,195.050262 254.232666,193.902802 
	C253.191223,194.969406 251.341141,195.963486 251.237930,197.114243 
	C250.496490,205.380615 250.039200,213.675995 249.704803,221.970734 
	C249.665512,222.945389 250.921646,223.972275 251.577255,224.974945 
	C252.510590,224.177521 254.072006,223.505035 254.260132,222.559357 
	C254.837708,219.655945 254.889069,216.647842 255.191666,212.757996 
z"/>
<path fill="#F9F9F9" opacity="1.000000" stroke="none" 
	d="
M180.096283,198.122162 
	C174.897141,198.593323 170.116806,198.939316 164.987000,199.310608 
	C164.759796,202.005432 164.544724,204.556168 164.307114,207.374176 
	C167.361252,207.374176 169.943756,207.374176 173.329758,207.374176 
	C173.123306,211.589905 172.926300,215.612747 172.715790,219.911453 
	C169.528488,220.233521 166.753357,220.513947 163.390488,220.853760 
	C163.221848,223.497330 163.059692,226.039459 162.886993,228.746796 
	C168.294495,228.746796 173.359833,228.746796 179.081131,228.746796 
	C178.840775,232.744156 178.606110,236.646713 178.330566,241.229004 
	C168.228622,241.838409 158.333862,242.435318 147.499542,243.088913 
	C148.685257,224.461044 149.851517,206.138855 151.059174,187.166245 
	C161.252579,186.569290 171.268387,185.982727 182.227310,185.340942 
	C181.598160,189.991425 181.056625,193.994217 180.096283,198.122162 
z"/>
<path fill="#F9F9F9" opacity="1.000000" stroke="none" 
	d="
M182.195908,232.175079 
	C183.160141,217.755951 184.239029,203.818604 184.937149,189.862228 
	C185.120209,186.202255 186.210770,184.748062 189.885559,185.010193 
	C192.995773,185.232056 196.134369,185.055923 199.809494,185.055923 
	C198.931335,199.000061 198.058853,212.854263 197.168076,226.998810 
	C202.569046,226.998810 207.804535,226.998810 213.542984,226.998810 
	C213.349091,230.551636 213.371017,233.998901 212.842468,237.359589 
	C212.694534,238.300110 210.968094,239.614182 209.891434,239.689117 
	C200.784729,240.322708 191.660782,240.708771 182.168320,241.188034 
	C182.168320,238.156479 182.168320,235.403122 182.195908,232.175079 
z"/>
<path fill="#F9F9F9" opacity="1.000000" stroke="none" 
	d="
M229.007751,182.873779 
	C230.794739,182.849121 232.101242,182.849121 233.828552,182.849121 
	C233.828552,184.752289 233.925552,186.525696 233.813324,188.285767 
	C232.840225,203.546082 231.747925,218.799423 230.894943,234.066238 
	C230.711594,237.347916 229.757019,239.008194 226.250366,238.824768 
	C223.106125,238.660278 219.946503,238.790131 216.067825,238.790131 
	C216.480377,231.564697 216.870483,224.193375 217.329803,216.826370 
	C217.888306,207.868774 218.560120,198.917999 219.078705,189.958237 
	C219.468567,183.222580 219.395447,183.219101 226.035492,183.000397 
	C226.866302,182.973038 227.696686,182.932755 229.007751,182.873779 
z"/>
<path fill="#F1F1F1" opacity="1.000000" stroke="none" 
	d="
M269.983276,164.893539 
	C264.919525,171.275482 258.459045,172.586258 251.420868,170.575653 
	C244.928467,168.720978 241.108063,163.807709 240.350647,157.219543 
	C240.081665,154.880020 241.238556,151.057892 242.980865,150.050171 
	C248.464554,146.878464 254.323761,143.825302 260.428925,142.385010 
	C269.254028,140.303040 273.059814,144.791122 273.475128,154.502899 
	C273.616516,157.809845 271.346313,161.219925 269.983276,164.893539 
M262.153168,163.947037 
	C267.328186,160.126923 268.693542,154.975113 265.777649,150.270874 
	C263.372131,146.390121 258.247437,144.905731 253.973404,146.851700 
	C249.163269,149.041763 247.121765,153.808578 248.861847,158.786911 
	C250.610031,163.788437 255.340302,165.829788 262.153168,163.947037 
z"/>
<path fill="#F0F0F0" opacity="1.000000" stroke="none" 
	d="
M183.759842,112.718460 
	C191.333649,109.846352 198.639191,109.926521 206.004379,111.828262 
	C208.921280,112.581421 210.744659,114.001518 209.940201,117.451408 
	C209.123947,120.951782 206.765488,120.366661 204.180222,120.103477 
	C198.280304,119.502869 192.357559,119.107582 186.437775,118.727097 
	C182.032593,118.443962 181.135864,116.806519 183.759842,112.718460 
z"/>
<path fill="#EDEDED" opacity="1.000000" stroke="none" 
	d="
M171.047821,168.188232 
	C172.202454,169.712479 173.357101,171.236710 174.813248,172.907867 
	C167.184814,179.324890 156.779449,178.000244 150.965363,170.180817 
	C149.230515,167.847610 146.917511,165.944290 144.706818,163.510498 
	C144.860626,163.112335 145.177048,163.047668 146.395126,162.901962 
	C149.119064,162.808075 150.962143,162.625366 152.756027,162.844818 
	C153.867889,162.980820 155.320099,163.428345 155.910004,164.247192 
	C160.549896,170.687912 163.658249,171.562439 171.047821,168.188232 
z"/>
<path fill="#D3D3D3" opacity="1.000000" stroke="none" 
	d="
M126.274315,158.106339 
	C121.999443,158.109528 118.188141,158.109528 114.376839,158.109528 
	C114.358345,157.557083 114.339859,157.004639 114.321365,156.452194 
	C122.168976,155.924484 130.016571,155.396774 137.864182,154.869080 
	C137.922318,155.650452 137.980438,156.431824 138.038574,157.213211 
	C134.271667,157.509857 130.504776,157.806503 126.274315,158.106339 
z"/>
<path fill="#CFCFCF" opacity="1.000000" stroke="none" 
	d="
M117.690033,145.168930 
	C124.860764,145.080292 131.618896,145.080292 139.332230,145.080292 
	C137.768036,145.999100 137.021103,146.793732 136.221893,146.850342 
	C130.443466,147.259705 124.654846,147.526794 118.868660,147.823532 
	C116.824791,147.928345 115.255219,147.695007 117.690033,145.168930 
z"/>
<path fill="#E6E6E6" opacity="1.000000" stroke="none" 
	d="
M229.026703,144.029480 
	C226.166122,144.589920 223.282166,145.122650 220.398209,145.655396 
	C220.053482,145.170975 219.708740,144.686569 219.364014,144.202148 
	C223.182953,140.826950 227.001907,137.451736 230.820847,134.076538 
	C231.352249,134.500061 231.883652,134.923599 232.415054,135.347122 
	C231.027405,138.104675 229.639740,140.862228 228.654724,143.835144 
	C229.057373,144.050491 229.003342,144.001755 229.026703,144.029480 
z"/>
<path fill="#DFDFDF" opacity="1.000000" stroke="none" 
	d="
M239.741180,98.784821 
	C233.873001,98.855682 231.996567,96.506195 232.944794,90.477989 
	C239.336472,91.369102 240.150269,92.340942 239.741180,98.784821 
z"/>
<path fill="#212121" opacity="1.000000" stroke="none" 
	d="
M171.598511,102.569130 
	C171.607834,108.587440 171.607834,114.158012 171.607834,121.183762 
	C163.860031,116.396301 157.118179,112.230423 150.384933,108.069855 
	C153.751358,101.899780 162.655594,97.671204 168.880600,99.327820 
	C169.955185,99.613785 170.694839,101.158241 171.598511,102.569130 
M160.475357,110.001518 
	C162.615067,110.739288 164.754761,111.477058 166.777588,112.174522 
	C167.430695,109.765884 168.120407,107.222176 168.658020,105.239449 
	C164.048203,106.319885 160.139603,107.235970 154.744675,108.500412 
	C157.321121,109.311417 158.493347,109.680405 160.475357,110.001518 
z"/>
<path fill="#1D1D1D" opacity="1.000000" stroke="none" 
	d="
M171.211700,167.869339 
	C163.658249,171.562439 160.549896,170.687912 155.910004,164.247192 
	C155.320099,163.428345 153.867889,162.980820 152.756027,162.844818 
	C150.962143,162.625366 149.119064,162.808075 146.870575,162.809082 
	C147.245285,161.933548 147.998840,160.370239 148.854248,160.312347 
	C159.614334,159.584290 170.388733,159.064804 181.162186,158.548904 
	C181.496719,158.532867 181.860611,159.130280 183.517975,160.604141 
	C176.828125,159.897766 173.465912,162.871170 171.211700,167.869339 
M162.847931,162.025497 
	C161.322128,162.182602 159.796326,162.339706 158.270523,162.496811 
	C158.104401,163.103882 157.938278,163.710953 157.772141,164.318024 
	C160.430176,165.364288 163.052490,167.123108 165.756195,167.258682 
	C168.522324,167.397400 171.154404,165.730896 171.252396,162.012451 
	C168.655914,162.012451 166.207336,162.012451 162.847931,162.025497 
z"/>
<path fill="#1D1D1D" opacity="1.000000" stroke="none" 
	d="
M166.240067,122.220634 
	C170.911880,122.208183 175.110397,122.208183 179.308914,122.208183 
	C179.338623,122.805565 179.368347,123.402946 179.398056,124.000328 
	C170.259583,124.532875 161.121109,125.065422 151.982620,125.597969 
	C151.896591,124.888374 151.810562,124.178780 151.724533,123.469185 
	C156.405273,123.057152 161.086014,122.645119 166.240067,122.220634 
z"/>
<path fill="#191919" opacity="1.000000" stroke="none" 
	d="
M246.921051,134.848679 
	C243.211365,138.514832 239.792938,141.972534 235.804276,146.007034 
	C236.156586,144.323547 236.007950,142.592926 236.801208,141.687454 
	C239.500900,138.605789 242.485229,135.763992 245.490707,132.970261 
	C245.926224,132.565414 247.070923,132.923492 247.887451,132.928528 
	C247.662415,133.499100 247.437363,134.069656 246.921051,134.848679 
z"/>
<path fill="#121212" opacity="1.000000" stroke="none" 
	d="
M125.860703,227.813812 
	C126.421410,218.803650 126.961151,210.263824 127.500893,201.723984 
	C128.011749,201.466156 128.522598,201.208313 129.033463,200.950485 
	C129.944519,202.222427 131.679688,203.525986 131.632324,204.761169 
	C131.334702,212.522293 130.763885,220.281326 129.943085,228.004868 
	C129.821030,229.153412 127.903534,230.111130 126.816666,231.157120 
	C126.491013,230.199448 126.165367,229.241791 125.860703,227.813812 
z"/>
<path fill="#0B0B0B" opacity="1.000000" stroke="none" 
	d="
M255.168335,213.219208 
	C254.889069,216.647842 254.837708,219.655945 254.260132,222.559357 
	C254.072006,223.505035 252.510590,224.177521 251.577255,224.974945 
	C250.921646,223.972275 249.665512,222.945389 249.704803,221.970734 
	C250.039200,213.675995 250.496490,205.380615 251.237930,197.114243 
	C251.341141,195.963486 253.191223,194.969406 254.232666,193.902802 
	C254.874741,195.050262 256.083649,196.208755 256.061554,197.343292 
	C255.961517,202.485214 255.514084,207.620392 255.168335,213.219208 
z"/>
<path fill="#191919" opacity="1.000000" stroke="none" 
	d="
M261.776489,164.072342 
	C255.340302,165.829788 250.610031,163.788437 248.861847,158.786911 
	C247.121765,153.808578 249.163269,149.041763 253.973404,146.851700 
	C258.247437,144.905731 263.372131,146.390121 265.777649,150.270874 
	C268.693542,154.975113 267.328186,160.126923 261.776489,164.072342 
M250.878189,154.672867 
	C251.369217,160.237686 254.394241,163.263214 258.783661,162.455582 
	C262.279022,161.812485 264.471375,159.681870 264.688843,156.099960 
	C264.916138,152.356735 263.218506,149.660568 259.357300,148.882401 
	C255.152679,148.035034 252.289139,149.699829 250.878189,154.672867 
z"/>
<path fill="#DFDFDF" opacity="1.000000" stroke="none" 
	d="
M160.070465,110.025459 
	C158.493347,109.680405 157.321121,109.311417 154.744675,108.500412 
	C160.139603,107.235970 164.048203,106.319885 168.658020,105.239449 
	C168.120407,107.222176 167.430695,109.765884 166.777588,112.174522 
	C164.754761,111.477058 162.615067,110.739288 160.070465,110.025459 
z"/>
<path fill="#EDEDED" opacity="1.000000" stroke="none" 
	d="
M163.303345,162.018982 
	C166.207336,162.012451 168.655914,162.012451 171.252396,162.012451 
	C171.154404,165.730896 168.522324,167.397400 165.756195,167.258682 
	C163.052490,167.123108 160.430176,165.364288 157.772141,164.318024 
	C157.938278,163.710953 158.104401,163.103882 158.270523,162.496811 
	C159.796326,162.339706 161.322128,162.182602 163.303345,162.018982 
z"/>
<path fill="#F3F3F3" opacity="1.000000" stroke="none" 
	d="
M250.931244,154.266037 
	C252.289139,149.699829 255.152679,148.035034 259.357300,148.882401 
	C263.218506,149.660568 264.916138,152.356735 264.688843,156.099960 
	C264.471375,159.681870 262.279022,161.812485 258.783661,162.455582 
	C254.394241,163.263214 251.369217,160.237686 250.931244,154.266037 
z"/>
</svg>