<?xml version="1.0" encoding="UTF-8"?>
<svg xmlns="http://www.w3.org/2000/svg" xmlns:xlink="http://www.w3.org/1999/xlink" viewBox="0 0 64 64" width="64px" height="64px">
<g id="surface147525151">
<path style=" stroke:none;fill-rule:nonzero;fill:rgb(0%,0%,0%);fill-opacity:1;" d="M 59 24 C 59 12.367188 49.523438 2.890625 37.890625 2.890625 C 26.253906 2.890625 16.777344 12.367188 16.777344 24 C 16.777344 29.039062 18.558594 33.664062 21.515625 37.300781 L 2.9375 52.132812 C 2.9375 52.132812 2.453125 55.378906 4.554688 57.398438 C 6.671875 59.429688 9.753906 58.953125 9.753906 58.953125 L 24.589844 40.375 C 28.222656 43.332031 32.851562 45.113281 37.890625 45.113281 C 49.523438 45.113281 59 35.636719 59 24 Z M 54.777344 24 C 54.777344 33.351562 47.242188 40.890625 37.890625 40.890625 C 28.535156 40.890625 21 33.351562 21 24 C 21 14.648438 28.535156 7.113281 37.890625 7.113281 C 47.242188 7.113281 54.777344 14.648438 54.777344 24 Z M 54.777344 24 "/>
</g>
</svg>
