
<svg version="1.0" xmlns="http://www.w3.org/2000/svg"
 width="64.000000pt" height="64.000000pt" viewBox="0 0 64.000000 64.000000"
 preserveAspectRatio="xMidYMid meet">

<g transform="translate(0.000000,64.000000) scale(0.100000,-0.100000)"
fill="#ffffff" stroke="none">
<path d="M226 594 c-71 -22 -159 -112 -180 -184 -34 -115 -12 -206 73 -291 85
-85 176 -107 291 -73 75 22 162 109 184 184 34 115 12 206 -73 291 -85 84
-180 108 -295 73z m209 -42 c47 -24 95 -73 121 -122 26 -49 26 -171 0 -220
-63 -120 -193 -176 -316 -135 -62 20 -123 72 -153 129 -29 54 -30 174 -3 226
35 67 95 118 166 141 41 14 142 3 185 -19z"/>
<path d="M223 318 c5 -18 199 -18 205 0 3 9 -22 12 -103 12 -81 0 -106 -3
-102 -12z"/>
</g>
</svg>
