
<svg version="1.0" xmlns="http://www.w3.org/2000/svg"
 width="32px" height="32px" viewBox="0 0 64.000000 64.000000"
 preserveAspectRatio="xMidYMid meet">

<g transform="translate(0.000000,64.000000) scale(0.100000,-0.100000)"
fill="#ffffff" stroke="none">
<path d="M226 594 c-71 -22 -159 -112 -180 -184 -34 -115 -12 -206 73 -291 85
-85 176 -107 291 -73 75 22 162 109 184 184 34 115 12 206 -73 291 -85 84
-180 108 -295 73z m209 -42 c47 -24 95 -73 121 -122 26 -49 26 -171 0 -220
-26 -49 -74 -98 -121 -123 -31 -17 -58 -22 -115 -22 -85 0 -133 20 -186 77
-54 57 -69 95 -69 178 0 83 15 121 69 178 31 34 70 58 116 73 41 14 142 3 185
-19z"/>
<path d="M306 414 c-3 -9 -6 -31 -6 -50 0 -34 0 -34 -45 -34 -45 0 -60 -12
-29 -24 9 -3 29 -6 45 -6 26 0 29 -3 29 -32 0 -18 5 -40 10 -48 9 -13 11 -13
20 0 5 8 10 30 10 48 0 29 3 32 29 32 16 0 36 3 45 6 31 12 16 24 -29 24 -45
0 -45 0 -45 34 0 39 -8 66 -20 66 -4 0 -11 -7 -14 -16z"/>
</g>
</svg>
