
<svg version="1.0" xmlns="http://www.w3.org/2000/svg"
 width="48px" height="48px" viewBox="0 0 512.000000 512.000000"
 preserveAspectRatio="xMidYMid meet">

<g transform="translate(0.000000,512.000000) scale(0.100000,-0.100000)"
fill="#ffffff" stroke="none">
<path d="M3023 4394 c-23 -34 -53 -64 -87 -87 -39 -27 -32 -66 15 -91 20 -11
44 -35 55 -55 15 -28 26 -37 51 -39 27 -3 34 2 53 36 12 21 37 47 56 57 49 26
56 62 18 91 -31 24 -49 42 -89 87 -30 34 -49 34 -72 1z"/>
<path d="M798 4349 c-30 -17 -39 -45 -27 -73 13 -28 13 -28 113 -51 38 -8 90
-25 115 -36 91 -40 156 -132 167 -237 l5 -47 -270 -305 c-156 -175 -281 -326
-296 -354 -19 -38 -25 -65 -25 -112 0 -58 27 -133 361 -1011 198 -521 371
-967 385 -990 46 -80 155 -132 252 -120 26 3 177 56 337 116 l289 111 281
-279 c177 -176 297 -287 325 -302 64 -33 176 -33 240 0 31 16 254 232 717 694
552 552 676 681 695 722 30 67 30 162 0 225 -31 64 -1889 1921 -1947 1946 -88
37 -133 29 -593 -114 -232 -73 -437 -132 -456 -132 -18 0 -39 -7 -46 -16 -29
-34 4 -218 48 -270 39 -46 68 -57 166 -58 83 -1 97 -4 134 -29 95 -62 115
-193 45 -286 -90 -118 -303 -78 -339 63 l-7 29 39 -8 c116 -22 159 -24 184 -6
31 23 37 61 12 84 -11 10 -49 21 -96 27 -177 22 -258 103 -293 292 -37 204
-43 232 -66 282 -48 105 -141 180 -270 221 -91 29 -157 38 -179 24z m320 -731
c-113 -363 -260 -845 -266 -873 -7 -32 -12 -22 -80 158 -77 205 -85 250 -53
302 18 29 408 475 415 475 2 0 -5 -28 -16 -62z m1808 -443 c14 -21 0 -76 -201
-767 -119 -408 -221 -755 -227 -771 -18 -46 -82 -50 -106 -7 -12 23 7 94 210
790 197 673 226 766 247 776 30 15 59 7 77 -21z m-568 -244 c51 -26 115 -99
130 -149 51 -171 -67 -332 -244 -332 -151 0 -266 127 -251 276 18 177 209 285
365 205z m-261 -1603 c-7 -3 -127 -50 -267 -103 -212 -80 -262 -96 -297 -92
-64 7 -97 37 -131 120 -45 108 -474 1239 -479 1262 -2 11 263 -250 590 -580
357 -360 590 -603 584 -607z m1065 1046 c103 -34 170 -132 170 -245 0 -74 -29
-136 -87 -187 -51 -45 -101 -62 -176 -62 -210 1 -322 256 -183 418 71 84 173
112 276 76z"/>
<path d="M2195 2826 c-101 -45 -114 -180 -22 -236 36 -23 100 -26 137 -7 38
19 70 74 70 119 0 52 -26 95 -72 119 -43 22 -71 23 -113 5z"/>
<path d="M3024 2256 c-68 -30 -97 -103 -69 -174 22 -53 67 -82 128 -82 83 0
149 84 127 161 -14 49 -39 79 -75 95 -42 17 -71 17 -111 0z"/>
<path d="M3689 4096 c-13 -6 -40 -38 -59 -70 -26 -43 -47 -64 -80 -81 -98 -50
-106 -100 -25 -151 62 -39 80 -56 119 -119 17 -27 39 -51 49 -53 42 -8 66 8
99 68 28 50 42 65 91 91 99 52 100 104 5 158 -64 36 -61 33 -101 100 -35 60
-62 75 -98 57z"/>
</g>
</svg>
