<svg version="1.0" xmlns="http://www.w3.org/2000/svg"
 width="512.000000pt" height="512.000000pt" viewBox="0 0 512.000000 512.000000"
 preserveAspectRatio="xMidYMid meet">

<g transform="translate(0.000000,512.000000) scale(0.100000,-0.100000)"
fill="hsl(150, 1%, 42%)" stroke="none">
<path d="M626 4949 c-62 -15 -153 -68 -197 -116 -22 -24 -55 -74 -72 -111
l-32 -67 0 -1856 0 -1855 37 -76 c45 -91 103 -147 196 -191 l67 -32 703 -3
702 -3 25 25 c33 33 33 79 0 111 l-24 25 -672 0 c-498 0 -682 3 -713 12 -55
16 -138 99 -154 154 -18 60 -18 3608 0 3668 17 58 100 138 158 154 35 10 298
12 1135 10 l1090 -3 5 -230 c4 -197 8 -235 24 -267 20 -42 83 -103 124 -121
17 -7 112 -14 257 -17 l230 -5 5 -538 5 -539 24 -19 c33 -27 77 -24 107 6 l25
25 -3 557 -3 558 -33 70 c-30 63 -59 96 -305 342 -246 246 -279 275 -342 305
l-70 33 -1130 2 c-661 1 -1146 -3 -1169 -8z m2599 -449 l180 -180 -158 0
c-154 0 -158 1 -182 25 -24 24 -25 28 -25 180 0 85 1 155 3 155 1 0 83 -81
182 -180z"/>
<path d="M1865 4295 c-16 -15 -25 -36 -25 -55 0 -19 9 -40 25 -55 21 -22 33
-25 102 -25 l78 0 -182 -182 -182 -182 -104 102 c-91 89 -108 102 -138 102
-31 0 -56 -23 -296 -263 -237 -236 -263 -266 -263 -295 0 -44 38 -82 82 -82
28 0 56 24 255 222 l223 222 103 -102 c90 -88 109 -102 138 -102 30 0 54 21
256 222 l223 222 0 -77 c0 -69 3 -81 25 -102 15 -16 36 -25 55 -25 19 0 40 9
55 25 25 24 25 26 25 215 0 257 17 240 -240 240 -189 0 -191 0 -215 -25z"/>
<path d="M2905 3815 c-16 -15 -25 -36 -25 -55 0 -19 9 -40 25 -55 23 -24 31
-25 135 -25 104 0 112 1 135 25 16 15 25 36 25 55 0 19 -9 40 -25 55 -23 24
-31 25 -135 25 -104 0 -112 -1 -135 -25z"/>
<path d="M2105 3655 l-25 -24 0 -431 0 -431 25 -24 c24 -25 26 -25 215 -25
189 0 191 0 215 25 l25 24 0 431 0 431 -25 24 c-24 25 -26 25 -215 25 -189 0
-191 0 -215 -25z m295 -455 l0 -320 -80 0 -80 0 0 320 0 320 80 0 80 0 0 -320z"/>
<path d="M1465 3415 l-25 -24 0 -311 0 -311 25 -24 c24 -25 26 -25 215 -25
189 0 191 0 215 25 l25 24 0 311 0 311 -25 24 c-24 25 -26 25 -215 25 -189 0
-191 0 -215 -25z m295 -335 l0 -200 -80 0 -80 0 0 200 0 200 80 0 80 0 0 -200z"/>
<path d="M2905 3335 c-16 -15 -25 -36 -25 -55 0 -19 9 -40 25 -55 23 -24 31
-25 135 -25 104 0 112 1 135 25 16 15 25 36 25 55 0 19 -9 40 -25 55 -23 24
-31 25 -135 25 -104 0 -112 -1 -135 -25z"/>
<path d="M825 3175 c-25 -24 -25 -26 -25 -215 0 -257 -17 -240 240 -240 257 0
240 -17 240 240 0 257 17 240 -240 240 -189 0 -191 0 -215 -25z m295 -215 l0
-80 -80 0 -80 0 0 80 0 80 80 0 80 0 0 -80z"/>
<path d="M2905 2855 c-16 -15 -25 -36 -25 -55 0 -19 9 -40 25 -55 23 -24 31
-25 135 -25 104 0 112 1 135 25 16 15 25 36 25 55 0 19 -9 40 -25 55 -23 24
-31 25 -135 25 -104 0 -112 -1 -135 -25z"/>
<path d="M3546 2857 l-26 -26 0 -591 0 -591 25 -24 24 -25 591 0 591 0 26 26
c25 25 26 28 19 124 -20 305 -138 565 -355 780 -213 211 -474 328 -773 347
-94 6 -97 5 -122 -20z m229 -152 c121 -16 312 -96 430 -180 70 -50 178 -157
236 -235 82 -109 168 -312 184 -435 3 -27 8 -60 11 -72 l4 -23 -480 0 -480 0
0 480 0 480 23 -4 c12 -3 45 -8 72 -11z"/>
<path d="M3145 2553 c-522 -68 -930 -441 -1041 -953 -26 -118 -26 -362 0 -480
104 -482 474 -845 961 -941 91 -18 339 -18 430 0 550 109 948 559 982 1113 6
94 5 97 -20 122 l-26 26 -536 0 -535 0 0 535 0 536 -25 24 c-21 22 -32 25 -92
24 -37 -1 -81 -4 -98 -6z m55 -688 l0 -536 25 -24 24 -25 536 0 535 0 -4 -23
c-3 -12 -8 -44 -11 -72 -4 -27 -18 -86 -32 -130 -156 -495 -651 -803 -1158
-720 -391 63 -709 340 -828 720 -151 481 75 1007 528 1233 92 46 223 89 310
101 33 5 63 9 68 10 4 0 7 -240 7 -534z"/>
<path d="M825 2375 c-16 -15 -25 -36 -25 -55 0 -19 9 -40 25 -55 l24 -25 631
0 631 0 24 25 c16 15 25 36 25 55 0 19 -9 40 -25 55 l-24 25 -631 0 -631 0
-24 -25z"/>
<path d="M825 1895 c-16 -15 -25 -36 -25 -55 0 -19 9 -40 25 -55 l24 -25 271
0 271 0 24 25 c16 15 25 36 25 55 0 19 -9 40 -25 55 l-24 25 -271 0 -271 0
-24 -25z"/>
<path d="M1625 1895 c-16 -15 -25 -36 -25 -55 0 -19 9 -40 25 -55 23 -24 31
-25 135 -25 104 0 112 1 135 25 16 15 25 36 25 55 0 19 -9 40 -25 55 -23 24
-31 25 -135 25 -104 0 -112 -1 -135 -25z"/>
<path d="M825 1415 c-16 -15 -25 -36 -25 -55 0 -19 9 -40 25 -55 l24 -25 471
0 471 0 24 25 c33 32 33 78 0 110 l-24 25 -471 0 -471 0 -24 -25z"/>
</g>
</svg>
