<svg version="1.0" xmlns="http://www.w3.org/2000/svg"
                width="32px" height="32px" viewBox="0 0 512.000000 512.000000"
                preserveAspectRatio="xMidYMid meet">
               
                <g transform="translate(0.000000,512.000000) scale(0.100000,-0.100000)"
                fill="hsl(150, 1%, 42%)" stroke="none">
               <path d="M2433 5101 c-163 -47 -285 -172 -328 -338 -22 -86 -22 -2070 0 -2156
               23 -87 61 -155 124 -218 185 -185 477 -185 662 0 63 63 101 131 124 218 23 87
               22 2070 0 2158 -67 256 -330 408 -582 336z m207 -304 c30 -16 51 -37 67 -67
               l23 -43 0 -1002 0 -1002 -23 -43 c-27 -51 -90 -90 -145 -90 -56 0 -119 36
               -147 84 l-25 43 0 1005 0 1005 23 43 c27 51 90 90 147 90 20 0 56 -10 80 -23z"/>
               <path d="M1189 3942 c-124 -33 -225 -114 -380 -309 -660 -827 -647 -2013 30
               -2824 963 -1154 2754 -1055 3589 197 177 265 297 582 348 914 24 159 25 473 1
               630 -66 431 -234 808 -505 1131 -153 182 -250 250 -392 272 -280 43 -540 -180
               -540 -462 0 -138 37 -219 161 -362 133 -152 201 -257 259 -403 234 -585 18
               -1250 -514 -1585 -455 -285 -1042 -258 -1471 68 -142 107 -294 290 -375 451
               -146 288 -173 657 -74 973 58 182 142 325 292 496 50 57 101 124 113 150 89
               187 54 398 -90 541 -120 120 -286 165 -452 122z m201 -305 c103 -54 119 -202
               30 -282 -35 -31 -142 -164 -187 -230 -149 -222 -240 -487 -262 -762 -52 -652
               303 -1272 894 -1558 190 -92 345 -134 572 -156 316 -31 680 58 963 234 239
               150 462 392 584 636 256 510 219 1136 -97 1606 -45 66 -152 199 -187 230 -91
               82 -73 233 33 284 85 41 143 24 234 -70 216 -224 382 -518 463 -821 51 -193
               63 -293 63 -508 1 -209 -12 -312 -59 -490 -131 -497 -454 -923 -896 -1184
               -757 -445 -1724 -320 -2348 304 -291 292 -474 651 -547 1075 -23 137 -23 451
               1 590 70 408 241 757 509 1034 93 95 153 113 237 68z"/>
               </g>
               </svg>
